<mxfile host="Electron" modified="2024-03-03T13:13:01.897Z" agent="Mozilla/5.0 (Windows NT 10.0; Win64; x64) AppleWebKit/537.36 (KHTML, like Gecko) draw.io/23.0.2 Chrome/120.0.6099.109 Electron/28.1.0 Safari/537.36" etag="si0TEGtTUqj-hBvhKkZF" version="23.0.2" type="device">
  <diagram name="Page-1" id="labryrinth_dotted">
    <mxGraphModel dx="574" dy="334" grid="1" gridSize="10" guides="1" tooltips="1" connect="1" arrows="1" fold="1" page="1" pageScale="1" pageWidth="827" pageHeight="1169" math="1" shadow="0">
      <root>
        <mxCell id="0" />
        <mxCell id="1" parent="0" />
        <mxCell id="collsionpoint-0" value="" style="ellipse;whiteSpace=wrap;html=1;aspect=fixed;fontSize=16;fillColor=#eeeeee;strokeColor=#36393d;" parent="1" vertex="1">
          <mxGeometry x="75" y="65" width="30" height="30" as="geometry" />
        </mxCell>
        <mxCell id="collsionpoint-1" value="" style="ellipse;whiteSpace=wrap;html=1;aspect=fixed;fontSize=16;fillColor=#eeeeee;strokeColor=#36393d;" parent="1" vertex="1">
          <mxGeometry x="75" y="85" width="30" height="30" as="geometry" />
        </mxCell>
        <mxCell id="collsionpoint-2" value="" style="ellipse;whiteSpace=wrap;html=1;aspect=fixed;fontSize=16;fillColor=#eeeeee;strokeColor=#36393d;" parent="1" vertex="1">
          <mxGeometry x="75" y="105" width="30" height="30" as="geometry" />
        </mxCell>
        <mxCell id="collsionpoint-3" value="" style="ellipse;whiteSpace=wrap;html=1;aspect=fixed;fontSize=16;fillColor=#eeeeee;strokeColor=#36393d;" parent="1" vertex="1">
          <mxGeometry x="75" y="115" width="30" height="30" as="geometry" />
        </mxCell>
        <mxCell id="collsionpoint-4" value="" style="ellipse;whiteSpace=wrap;html=1;aspect=fixed;fontSize=16;fillColor=#eeeeee;strokeColor=#36393d;" parent="1" vertex="1">
          <mxGeometry x="95" y="115" width="30" height="30" as="geometry" />
        </mxCell>
        <mxCell id="collsionpoint-5" value="" style="ellipse;whiteSpace=wrap;html=1;aspect=fixed;fontSize=16;fillColor=#eeeeee;strokeColor=#36393d;" parent="1" vertex="1">
          <mxGeometry x="115" y="115" width="30" height="30" as="geometry" />
        </mxCell>
        <mxCell id="collsionpoint-6" value="" style="ellipse;whiteSpace=wrap;html=1;aspect=fixed;fontSize=16;fillColor=#eeeeee;strokeColor=#36393d;" parent="1" vertex="1">
          <mxGeometry x="135" y="115" width="30" height="30" as="geometry" />
        </mxCell>
        <mxCell id="collsionpoint-7" value="" style="ellipse;whiteSpace=wrap;html=1;aspect=fixed;fontSize=16;fillColor=#eeeeee;strokeColor=#36393d;" parent="1" vertex="1">
          <mxGeometry x="155" y="115" width="30" height="30" as="geometry" />
        </mxCell>
        <mxCell id="collsionpoint-8" value="" style="ellipse;whiteSpace=wrap;html=1;aspect=fixed;fontSize=16;fillColor=#eeeeee;strokeColor=#36393d;" parent="1" vertex="1">
          <mxGeometry x="175" y="115" width="30" height="30" as="geometry" />
        </mxCell>
        <mxCell id="collsionpoint-9" value="" style="ellipse;whiteSpace=wrap;html=1;aspect=fixed;fontSize=16;fillColor=#eeeeee;strokeColor=#36393d;" parent="1" vertex="1">
          <mxGeometry x="195" y="115" width="30" height="30" as="geometry" />
        </mxCell>
        <mxCell id="collsionpoint-10" value="" style="ellipse;whiteSpace=wrap;html=1;aspect=fixed;fontSize=16;fillColor=#eeeeee;strokeColor=#36393d;" parent="1" vertex="1">
          <mxGeometry x="215" y="115" width="30" height="30" as="geometry" />
        </mxCell>
        <mxCell id="collsionpoint-11" value="" style="ellipse;whiteSpace=wrap;html=1;aspect=fixed;fontSize=16;fillColor=#eeeeee;strokeColor=#36393d;" parent="1" vertex="1">
          <mxGeometry x="235" y="115" width="30" height="30" as="geometry" />
        </mxCell>
        <mxCell id="collsionpoint-12" value="" style="ellipse;whiteSpace=wrap;html=1;aspect=fixed;fontSize=16;fillColor=#eeeeee;strokeColor=#36393d;" parent="1" vertex="1">
          <mxGeometry x="255" y="115" width="30" height="30" as="geometry" />
        </mxCell>
        <mxCell id="collsionpoint-13" value="" style="ellipse;whiteSpace=wrap;html=1;aspect=fixed;fontSize=16;fillColor=#eeeeee;strokeColor=#36393d;" parent="1" vertex="1">
          <mxGeometry x="275" y="115" width="30" height="30" as="geometry" />
        </mxCell>
        <mxCell id="collsionpoint-14" value="" style="ellipse;whiteSpace=wrap;html=1;aspect=fixed;fontSize=16;fillColor=#eeeeee;strokeColor=#36393d;" parent="1" vertex="1">
          <mxGeometry x="295" y="115" width="30" height="30" as="geometry" />
        </mxCell>
        <mxCell id="collsionpoint-15" value="" style="ellipse;whiteSpace=wrap;html=1;aspect=fixed;fontSize=16;fillColor=#eeeeee;strokeColor=#36393d;" parent="1" vertex="1">
          <mxGeometry x="315" y="115" width="30" height="30" as="geometry" />
        </mxCell>
        <mxCell id="collsionpoint-16" value="" style="ellipse;whiteSpace=wrap;html=1;aspect=fixed;fontSize=16;fillColor=#eeeeee;strokeColor=#36393d;" parent="1" vertex="1">
          <mxGeometry x="335" y="115" width="30" height="30" as="geometry" />
        </mxCell>
        <mxCell id="collsionpoint-17" value="" style="ellipse;whiteSpace=wrap;html=1;aspect=fixed;fontSize=16;fillColor=#eeeeee;strokeColor=#36393d;" parent="1" vertex="1">
          <mxGeometry x="355" y="115" width="30" height="30" as="geometry" />
        </mxCell>
        <mxCell id="collsionpoint-18" value="" style="ellipse;whiteSpace=wrap;html=1;aspect=fixed;fontSize=16;fillColor=#eeeeee;strokeColor=#36393d;" parent="1" vertex="1">
          <mxGeometry x="375" y="115" width="30" height="30" as="geometry" />
        </mxCell>
        <mxCell id="collsionpoint-19" value="" style="ellipse;whiteSpace=wrap;html=1;aspect=fixed;fontSize=16;fillColor=#eeeeee;strokeColor=#36393d;" parent="1" vertex="1">
          <mxGeometry x="385" y="115" width="30" height="30" as="geometry" />
        </mxCell>
        <mxCell id="collsionpoint-20" value="" style="ellipse;whiteSpace=wrap;html=1;aspect=fixed;fontSize=16;fillColor=#eeeeee;strokeColor=#36393d;" parent="1" vertex="1">
          <mxGeometry x="405" y="115" width="30" height="30" as="geometry" />
        </mxCell>
        <mxCell id="collsionpoint-21" value="" style="ellipse;whiteSpace=wrap;html=1;aspect=fixed;fontSize=16;fillColor=#eeeeee;strokeColor=#36393d;" parent="1" vertex="1">
          <mxGeometry x="425" y="115" width="30" height="30" as="geometry" />
        </mxCell>
        <mxCell id="collsionpoint-22" value="" style="ellipse;whiteSpace=wrap;html=1;aspect=fixed;fontSize=16;fillColor=#eeeeee;strokeColor=#36393d;" parent="1" vertex="1">
          <mxGeometry x="445" y="115" width="30" height="30" as="geometry" />
        </mxCell>
        <mxCell id="collsionpoint-23" value="" style="ellipse;whiteSpace=wrap;html=1;aspect=fixed;fontSize=16;fillColor=#eeeeee;strokeColor=#36393d;" parent="1" vertex="1">
          <mxGeometry x="465" y="115" width="30" height="30" as="geometry" />
        </mxCell>
        <mxCell id="collsionpoint-24" value="" style="ellipse;whiteSpace=wrap;html=1;aspect=fixed;fontSize=16;fillColor=#eeeeee;strokeColor=#36393d;" parent="1" vertex="1">
          <mxGeometry x="565" y="115" width="30" height="30" as="geometry" />
        </mxCell>
        <mxCell id="collsionpoint-25" value="" style="ellipse;whiteSpace=wrap;html=1;aspect=fixed;fontSize=16;fillColor=#eeeeee;strokeColor=#36393d;" parent="1" vertex="1">
          <mxGeometry x="585" y="115" width="30" height="30" as="geometry" />
        </mxCell>
        <mxCell id="collsionpoint-26" value="" style="ellipse;whiteSpace=wrap;html=1;aspect=fixed;fontSize=16;fillColor=#eeeeee;strokeColor=#36393d;" parent="1" vertex="1">
          <mxGeometry x="605" y="115" width="30" height="30" as="geometry" />
        </mxCell>
        <mxCell id="collsionpoint-27" value="" style="ellipse;whiteSpace=wrap;html=1;aspect=fixed;fontSize=16;fillColor=#eeeeee;strokeColor=#36393d;" parent="1" vertex="1">
          <mxGeometry x="625" y="115" width="30" height="30" as="geometry" />
        </mxCell>
        <mxCell id="collsionpoint-28" value="" style="ellipse;whiteSpace=wrap;html=1;aspect=fixed;fontSize=16;fillColor=#eeeeee;strokeColor=#36393d;" parent="1" vertex="1">
          <mxGeometry x="645" y="115" width="30" height="30" as="geometry" />
        </mxCell>
        <mxCell id="collsionpoint-29" value="" style="ellipse;whiteSpace=wrap;html=1;aspect=fixed;fontSize=16;fillColor=#eeeeee;strokeColor=#36393d;" parent="1" vertex="1">
          <mxGeometry x="665" y="115" width="30" height="30" as="geometry" />
        </mxCell>
        <mxCell id="collsionpoint-30" value="" style="ellipse;whiteSpace=wrap;html=1;aspect=fixed;fontSize=16;fillColor=#eeeeee;strokeColor=#36393d;" parent="1" vertex="1">
          <mxGeometry x="685" y="115" width="30" height="30" as="geometry" />
        </mxCell>
        <mxCell id="collsionpoint-31" value="" style="ellipse;whiteSpace=wrap;html=1;aspect=fixed;fontSize=16;fillColor=#eeeeee;strokeColor=#36393d;" parent="1" vertex="1">
          <mxGeometry x="705" y="115" width="30" height="30" as="geometry" />
        </mxCell>
        <mxCell id="collsionpoint-32" value="" style="ellipse;whiteSpace=wrap;html=1;aspect=fixed;fontSize=16;fillColor=#eeeeee;strokeColor=#36393d;" parent="1" vertex="1">
          <mxGeometry x="725" y="115" width="30" height="30" as="geometry" />
        </mxCell>
        <mxCell id="collsionpoint-33" value="" style="ellipse;whiteSpace=wrap;html=1;aspect=fixed;fontSize=16;fillColor=#eeeeee;strokeColor=#36393d;" parent="1" vertex="1">
          <mxGeometry x="745" y="115" width="30" height="30" as="geometry" />
        </mxCell>
        <mxCell id="collsionpoint-34" value="" style="ellipse;whiteSpace=wrap;html=1;aspect=fixed;fontSize=16;fillColor=#eeeeee;strokeColor=#36393d;" parent="1" vertex="1">
          <mxGeometry x="765" y="115" width="30" height="30" as="geometry" />
        </mxCell>
        <mxCell id="collsionpoint-35" value="" style="ellipse;whiteSpace=wrap;html=1;aspect=fixed;fontSize=16;fillColor=#eeeeee;strokeColor=#36393d;" parent="1" vertex="1">
          <mxGeometry x="75" y="135" width="30" height="30" as="geometry" />
        </mxCell>
        <mxCell id="collsionpoint-36" value="" style="ellipse;whiteSpace=wrap;html=1;aspect=fixed;fontSize=16;fillColor=#eeeeee;strokeColor=#36393d;" parent="1" vertex="1">
          <mxGeometry x="765" y="135" width="30" height="30" as="geometry" />
        </mxCell>
        <mxCell id="collsionpoint-37" value="" style="ellipse;whiteSpace=wrap;html=1;aspect=fixed;fontSize=16;fillColor=#eeeeee;strokeColor=#36393d;" parent="1" vertex="1">
          <mxGeometry x="75" y="155" width="30" height="30" as="geometry" />
        </mxCell>
        <mxCell id="collsionpoint-38" value="" style="ellipse;whiteSpace=wrap;html=1;aspect=fixed;fontSize=16;fillColor=#eeeeee;strokeColor=#36393d;" parent="1" vertex="1">
          <mxGeometry x="765" y="155" width="30" height="30" as="geometry" />
        </mxCell>
        <mxCell id="collsionpoint-39" value="" style="ellipse;whiteSpace=wrap;html=1;aspect=fixed;fontSize=16;fillColor=#eeeeee;strokeColor=#36393d;" parent="1" vertex="1">
          <mxGeometry x="75" y="175" width="30" height="30" as="geometry" />
        </mxCell>
        <mxCell id="collsionpoint-40" value="" style="ellipse;whiteSpace=wrap;html=1;aspect=fixed;fontSize=16;fillColor=#eeeeee;strokeColor=#36393d;" parent="1" vertex="1">
          <mxGeometry x="765" y="175" width="30" height="30" as="geometry" />
        </mxCell>
        <mxCell id="collsionpoint-41" value="" style="ellipse;whiteSpace=wrap;html=1;aspect=fixed;fontSize=16;fillColor=#eeeeee;strokeColor=#36393d;" parent="1" vertex="1">
          <mxGeometry x="75" y="195" width="30" height="30" as="geometry" />
        </mxCell>
        <mxCell id="collsionpoint-42" value="" style="ellipse;whiteSpace=wrap;html=1;aspect=fixed;fontSize=16;fillColor=#eeeeee;strokeColor=#36393d;" parent="1" vertex="1">
          <mxGeometry x="165" y="195" width="30" height="30" as="geometry" />
        </mxCell>
        <mxCell id="collsionpoint-43" value="" style="ellipse;whiteSpace=wrap;html=1;aspect=fixed;fontSize=16;fillColor=#eeeeee;strokeColor=#36393d;" parent="1" vertex="1">
          <mxGeometry x="185" y="195" width="30" height="30" as="geometry" />
        </mxCell>
        <mxCell id="collsionpoint-44" value="" style="ellipse;whiteSpace=wrap;html=1;aspect=fixed;fontSize=16;fillColor=#eeeeee;strokeColor=#36393d;" parent="1" vertex="1">
          <mxGeometry x="205" y="195" width="30" height="30" as="geometry" />
        </mxCell>
        <mxCell id="collsionpoint-45" value="" style="ellipse;whiteSpace=wrap;html=1;aspect=fixed;fontSize=16;fillColor=#eeeeee;strokeColor=#36393d;" parent="1" vertex="1">
          <mxGeometry x="215" y="195" width="30" height="30" as="geometry" />
        </mxCell>
        <mxCell id="collsionpoint-46" value="" style="ellipse;whiteSpace=wrap;html=1;aspect=fixed;fontSize=16;fillColor=#eeeeee;strokeColor=#36393d;" parent="1" vertex="1">
          <mxGeometry x="235" y="195" width="30" height="30" as="geometry" />
        </mxCell>
        <mxCell id="collsionpoint-47" value="" style="ellipse;whiteSpace=wrap;html=1;aspect=fixed;fontSize=16;fillColor=#eeeeee;strokeColor=#36393d;" parent="1" vertex="1">
          <mxGeometry x="255" y="195" width="30" height="30" as="geometry" />
        </mxCell>
        <mxCell id="collsionpoint-48" value="" style="ellipse;whiteSpace=wrap;html=1;aspect=fixed;fontSize=16;fillColor=#eeeeee;strokeColor=#36393d;" parent="1" vertex="1">
          <mxGeometry x="275" y="195" width="30" height="30" as="geometry" />
        </mxCell>
        <mxCell id="collsionpoint-49" value="" style="ellipse;whiteSpace=wrap;html=1;aspect=fixed;fontSize=16;fillColor=#eeeeee;strokeColor=#36393d;" parent="1" vertex="1">
          <mxGeometry x="295" y="195" width="30" height="30" as="geometry" />
        </mxCell>
        <mxCell id="collsionpoint-50" value="" style="ellipse;whiteSpace=wrap;html=1;aspect=fixed;fontSize=16;fillColor=#eeeeee;strokeColor=#36393d;" parent="1" vertex="1">
          <mxGeometry x="315" y="195" width="30" height="30" as="geometry" />
        </mxCell>
        <mxCell id="collsionpoint-51" value="" style="ellipse;whiteSpace=wrap;html=1;aspect=fixed;fontSize=16;fillColor=#eeeeee;strokeColor=#36393d;" parent="1" vertex="1">
          <mxGeometry x="335" y="195" width="30" height="30" as="geometry" />
        </mxCell>
        <mxCell id="collsionpoint-52" value="" style="ellipse;whiteSpace=wrap;html=1;aspect=fixed;fontSize=16;fillColor=#eeeeee;strokeColor=#36393d;" parent="1" vertex="1">
          <mxGeometry x="355" y="195" width="30" height="30" as="geometry" />
        </mxCell>
        <mxCell id="collsionpoint-53" value="" style="ellipse;whiteSpace=wrap;html=1;aspect=fixed;fontSize=16;fillColor=#eeeeee;strokeColor=#36393d;" parent="1" vertex="1">
          <mxGeometry x="375" y="195" width="30" height="30" as="geometry" />
        </mxCell>
        <mxCell id="collsionpoint-54" value="" style="ellipse;whiteSpace=wrap;html=1;aspect=fixed;fontSize=16;fillColor=#eeeeee;strokeColor=#36393d;" parent="1" vertex="1">
          <mxGeometry x="385" y="195" width="30" height="30" as="geometry" />
        </mxCell>
        <mxCell id="collsionpoint-55" value="" style="ellipse;whiteSpace=wrap;html=1;aspect=fixed;fontSize=16;fillColor=#eeeeee;strokeColor=#36393d;" parent="1" vertex="1">
          <mxGeometry x="405" y="195" width="30" height="30" as="geometry" />
        </mxCell>
        <mxCell id="collsionpoint-56" value="" style="ellipse;whiteSpace=wrap;html=1;aspect=fixed;fontSize=16;fillColor=#eeeeee;strokeColor=#36393d;" parent="1" vertex="1">
          <mxGeometry x="425" y="195" width="30" height="30" as="geometry" />
        </mxCell>
        <mxCell id="collsionpoint-57" value="" style="ellipse;whiteSpace=wrap;html=1;aspect=fixed;fontSize=16;fillColor=#eeeeee;strokeColor=#36393d;" parent="1" vertex="1">
          <mxGeometry x="445" y="195" width="30" height="30" as="geometry" />
        </mxCell>
        <mxCell id="collsionpoint-58" value="" style="ellipse;whiteSpace=wrap;html=1;aspect=fixed;fontSize=16;fillColor=#eeeeee;strokeColor=#36393d;" parent="1" vertex="1">
          <mxGeometry x="465" y="195" width="30" height="30" as="geometry" />
        </mxCell>
        <mxCell id="collsionpoint-59" value="" style="ellipse;whiteSpace=wrap;html=1;aspect=fixed;fontSize=16;fillColor=#eeeeee;strokeColor=#36393d;" parent="1" vertex="1">
          <mxGeometry x="485" y="195" width="30" height="30" as="geometry" />
        </mxCell>
        <mxCell id="collsionpoint-60" value="" style="ellipse;whiteSpace=wrap;html=1;aspect=fixed;fontSize=16;fillColor=#eeeeee;strokeColor=#36393d;" parent="1" vertex="1">
          <mxGeometry x="505" y="195" width="30" height="30" as="geometry" />
        </mxCell>
        <mxCell id="collsionpoint-61" value="" style="ellipse;whiteSpace=wrap;html=1;aspect=fixed;fontSize=16;fillColor=#eeeeee;strokeColor=#36393d;" parent="1" vertex="1">
          <mxGeometry x="525" y="195" width="30" height="30" as="geometry" />
        </mxCell>
        <mxCell id="collsionpoint-62" value="" style="ellipse;whiteSpace=wrap;html=1;aspect=fixed;fontSize=16;fillColor=#eeeeee;strokeColor=#36393d;" parent="1" vertex="1">
          <mxGeometry x="545" y="195" width="30" height="30" as="geometry" />
        </mxCell>
        <mxCell id="collsionpoint-63" value="" style="ellipse;whiteSpace=wrap;html=1;aspect=fixed;fontSize=16;fillColor=#eeeeee;strokeColor=#36393d;" parent="1" vertex="1">
          <mxGeometry x="555" y="195" width="30" height="30" as="geometry" />
        </mxCell>
        <mxCell id="collsionpoint-64" value="" style="ellipse;whiteSpace=wrap;html=1;aspect=fixed;fontSize=16;fillColor=#eeeeee;strokeColor=#36393d;" parent="1" vertex="1">
          <mxGeometry x="575" y="195" width="30" height="30" as="geometry" />
        </mxCell>
        <mxCell id="collsionpoint-65" value="" style="ellipse;whiteSpace=wrap;html=1;aspect=fixed;fontSize=16;fillColor=#eeeeee;strokeColor=#36393d;" parent="1" vertex="1">
          <mxGeometry x="595" y="195" width="30" height="30" as="geometry" />
        </mxCell>
        <mxCell id="collsionpoint-66" value="" style="ellipse;whiteSpace=wrap;html=1;aspect=fixed;fontSize=16;fillColor=#eeeeee;strokeColor=#36393d;" parent="1" vertex="1">
          <mxGeometry x="615" y="195" width="30" height="30" as="geometry" />
        </mxCell>
        <mxCell id="collsionpoint-67" value="" style="ellipse;whiteSpace=wrap;html=1;aspect=fixed;fontSize=16;fillColor=#eeeeee;strokeColor=#36393d;" parent="1" vertex="1">
          <mxGeometry x="765" y="195" width="30" height="30" as="geometry" />
        </mxCell>
        <mxCell id="collsionpoint-68" value="" style="ellipse;whiteSpace=wrap;html=1;aspect=fixed;fontSize=16;fillColor=#eeeeee;strokeColor=#36393d;" parent="1" vertex="1">
          <mxGeometry x="215" y="205" width="30" height="30" as="geometry" />
        </mxCell>
        <mxCell id="collsionpoint-69" value="" style="ellipse;whiteSpace=wrap;html=1;aspect=fixed;fontSize=16;fillColor=#eeeeee;strokeColor=#36393d;" parent="1" vertex="1">
          <mxGeometry x="375" y="205" width="30" height="30" as="geometry" />
        </mxCell>
        <mxCell id="collsionpoint-70" value="" style="ellipse;whiteSpace=wrap;html=1;aspect=fixed;fontSize=16;fillColor=#eeeeee;strokeColor=#36393d;" parent="1" vertex="1">
          <mxGeometry x="545" y="205" width="30" height="30" as="geometry" />
        </mxCell>
        <mxCell id="collsionpoint-71" value="" style="ellipse;whiteSpace=wrap;html=1;aspect=fixed;fontSize=16;fillColor=#eeeeee;strokeColor=#36393d;" parent="1" vertex="1">
          <mxGeometry x="75" y="215" width="30" height="30" as="geometry" />
        </mxCell>
        <mxCell id="collsionpoint-72" value="" style="ellipse;whiteSpace=wrap;html=1;aspect=fixed;fontSize=16;fillColor=#eeeeee;strokeColor=#36393d;" parent="1" vertex="1">
          <mxGeometry x="765" y="215" width="30" height="30" as="geometry" />
        </mxCell>
        <mxCell id="collsionpoint-73" value="" style="ellipse;whiteSpace=wrap;html=1;aspect=fixed;fontSize=16;fillColor=#eeeeee;strokeColor=#36393d;" parent="1" vertex="1">
          <mxGeometry x="215" y="225" width="30" height="30" as="geometry" />
        </mxCell>
        <mxCell id="collsionpoint-74" value="" style="ellipse;whiteSpace=wrap;html=1;aspect=fixed;fontSize=16;fillColor=#eeeeee;strokeColor=#36393d;" parent="1" vertex="1">
          <mxGeometry x="375" y="225" width="30" height="30" as="geometry" />
        </mxCell>
        <mxCell id="collsionpoint-75" value="" style="ellipse;whiteSpace=wrap;html=1;aspect=fixed;fontSize=16;fillColor=#eeeeee;strokeColor=#36393d;" parent="1" vertex="1">
          <mxGeometry x="545" y="225" width="30" height="30" as="geometry" />
        </mxCell>
        <mxCell id="collsionpoint-76" value="" style="ellipse;whiteSpace=wrap;html=1;aspect=fixed;fontSize=16;fillColor=#eeeeee;strokeColor=#36393d;" parent="1" vertex="1">
          <mxGeometry x="75" y="235" width="30" height="30" as="geometry" />
        </mxCell>
        <mxCell id="collsionpoint-77" value="" style="ellipse;whiteSpace=wrap;html=1;aspect=fixed;fontSize=16;fillColor=#eeeeee;strokeColor=#36393d;" parent="1" vertex="1">
          <mxGeometry x="765" y="235" width="30" height="30" as="geometry" />
        </mxCell>
        <mxCell id="collsionpoint-78" value="" style="ellipse;whiteSpace=wrap;html=1;aspect=fixed;fontSize=16;fillColor=#eeeeee;strokeColor=#36393d;" parent="1" vertex="1">
          <mxGeometry x="375" y="245" width="30" height="30" as="geometry" />
        </mxCell>
        <mxCell id="collsionpoint-79" value="" style="ellipse;whiteSpace=wrap;html=1;aspect=fixed;fontSize=16;fillColor=#eeeeee;strokeColor=#36393d;" parent="1" vertex="1">
          <mxGeometry x="545" y="245" width="30" height="30" as="geometry" />
        </mxCell>
        <mxCell id="collsionpoint-80" value="" style="ellipse;whiteSpace=wrap;html=1;aspect=fixed;fontSize=16;fillColor=#eeeeee;strokeColor=#36393d;" parent="1" vertex="1">
          <mxGeometry x="75" y="255" width="30" height="30" as="geometry" />
        </mxCell>
        <mxCell id="collsionpoint-81" value="" style="ellipse;whiteSpace=wrap;html=1;aspect=fixed;fontSize=16;fillColor=#eeeeee;strokeColor=#36393d;" parent="1" vertex="1">
          <mxGeometry x="765" y="255" width="30" height="30" as="geometry" />
        </mxCell>
        <mxCell id="collsionpoint-82" value="" style="ellipse;whiteSpace=wrap;html=1;aspect=fixed;fontSize=16;fillColor=#eeeeee;strokeColor=#36393d;" parent="1" vertex="1">
          <mxGeometry x="375" y="265" width="30" height="30" as="geometry" />
        </mxCell>
        <mxCell id="collsionpoint-83" value="" style="ellipse;whiteSpace=wrap;html=1;aspect=fixed;fontSize=16;fillColor=#eeeeee;strokeColor=#36393d;" parent="1" vertex="1">
          <mxGeometry x="545" y="265" width="30" height="30" as="geometry" />
        </mxCell>
        <mxCell id="collsionpoint-84" value="" style="ellipse;whiteSpace=wrap;html=1;aspect=fixed;fontSize=16;fillColor=#eeeeee;strokeColor=#36393d;" parent="1" vertex="1">
          <mxGeometry x="75" y="275" width="30" height="30" as="geometry" />
        </mxCell>
        <mxCell id="collsionpoint-85" value="" style="ellipse;whiteSpace=wrap;html=1;aspect=fixed;fontSize=16;fillColor=#eeeeee;strokeColor=#36393d;" parent="1" vertex="1">
          <mxGeometry x="765" y="275" width="30" height="30" as="geometry" />
        </mxCell>
        <mxCell id="collsionpoint-86" value="" style="ellipse;whiteSpace=wrap;html=1;aspect=fixed;fontSize=16;fillColor=#eeeeee;strokeColor=#36393d;" parent="1" vertex="1">
          <mxGeometry x="545" y="285" width="30" height="30" as="geometry" />
        </mxCell>
        <mxCell id="collsionpoint-87" value="" style="ellipse;whiteSpace=wrap;html=1;aspect=fixed;fontSize=16;fillColor=#eeeeee;strokeColor=#36393d;" parent="1" vertex="1">
          <mxGeometry x="665" y="285" width="30" height="30" as="geometry" />
        </mxCell>
        <mxCell id="collsionpoint-88" value="" style="ellipse;whiteSpace=wrap;html=1;aspect=fixed;fontSize=16;fillColor=#eeeeee;strokeColor=#36393d;" parent="1" vertex="1">
          <mxGeometry x="75" y="295" width="30" height="30" as="geometry" />
        </mxCell>
        <mxCell id="collsionpoint-89" value="" style="ellipse;whiteSpace=wrap;html=1;aspect=fixed;fontSize=16;fillColor=#eeeeee;strokeColor=#36393d;" parent="1" vertex="1">
          <mxGeometry x="445" y="295" width="30" height="30" as="geometry" />
        </mxCell>
        <mxCell id="collsionpoint-90" value="" style="ellipse;whiteSpace=wrap;html=1;aspect=fixed;fontSize=16;fillColor=#eeeeee;strokeColor=#36393d;" parent="1" vertex="1">
          <mxGeometry x="765" y="295" width="30" height="30" as="geometry" />
        </mxCell>
        <mxCell id="collsionpoint-91" value="" style="ellipse;whiteSpace=wrap;html=1;aspect=fixed;fontSize=16;fillColor=#eeeeee;strokeColor=#36393d;" parent="1" vertex="1">
          <mxGeometry x="265" y="305" width="30" height="30" as="geometry" />
        </mxCell>
        <mxCell id="collsionpoint-92" value="" style="ellipse;whiteSpace=wrap;html=1;aspect=fixed;fontSize=16;fillColor=#eeeeee;strokeColor=#36393d;" parent="1" vertex="1">
          <mxGeometry x="665" y="305" width="30" height="30" as="geometry" />
        </mxCell>
        <mxCell id="collsionpoint-93" value="" style="ellipse;whiteSpace=wrap;html=1;aspect=fixed;fontSize=16;fillColor=#eeeeee;strokeColor=#36393d;" parent="1" vertex="1">
          <mxGeometry x="75" y="315" width="30" height="30" as="geometry" />
        </mxCell>
        <mxCell id="collsionpoint-94" value="" style="ellipse;whiteSpace=wrap;html=1;aspect=fixed;fontSize=16;fillColor=#eeeeee;strokeColor=#36393d;" parent="1" vertex="1">
          <mxGeometry x="95" y="315" width="30" height="30" as="geometry" />
        </mxCell>
        <mxCell id="collsionpoint-95" value="" style="ellipse;whiteSpace=wrap;html=1;aspect=fixed;fontSize=16;fillColor=#eeeeee;strokeColor=#36393d;" parent="1" vertex="1">
          <mxGeometry x="115" y="315" width="30" height="30" as="geometry" />
        </mxCell>
        <mxCell id="collsionpoint-96" value="" style="ellipse;whiteSpace=wrap;html=1;aspect=fixed;fontSize=16;fillColor=#eeeeee;strokeColor=#36393d;" parent="1" vertex="1">
          <mxGeometry x="135" y="315" width="30" height="30" as="geometry" />
        </mxCell>
        <mxCell id="collsionpoint-97" value="" style="ellipse;whiteSpace=wrap;html=1;aspect=fixed;fontSize=16;fillColor=#eeeeee;strokeColor=#36393d;" parent="1" vertex="1">
          <mxGeometry x="155" y="315" width="30" height="30" as="geometry" />
        </mxCell>
        <mxCell id="collsionpoint-98" value="" style="ellipse;whiteSpace=wrap;html=1;aspect=fixed;fontSize=16;fillColor=#eeeeee;strokeColor=#36393d;" parent="1" vertex="1">
          <mxGeometry x="175" y="315" width="30" height="30" as="geometry" />
        </mxCell>
        <mxCell id="collsionpoint-99" value="" style="ellipse;whiteSpace=wrap;html=1;aspect=fixed;fontSize=16;fillColor=#eeeeee;strokeColor=#36393d;" parent="1" vertex="1">
          <mxGeometry x="445" y="315" width="30" height="30" as="geometry" />
        </mxCell>
        <mxCell id="collsionpoint-100" value="" style="ellipse;whiteSpace=wrap;html=1;aspect=fixed;fontSize=16;fillColor=#eeeeee;strokeColor=#36393d;" parent="1" vertex="1">
          <mxGeometry x="765" y="315" width="30" height="30" as="geometry" />
        </mxCell>
        <mxCell id="collsionpoint-101" value="" style="ellipse;whiteSpace=wrap;html=1;aspect=fixed;fontSize=16;fillColor=#eeeeee;strokeColor=#36393d;" parent="1" vertex="1">
          <mxGeometry x="265" y="325" width="30" height="30" as="geometry" />
        </mxCell>
        <mxCell id="collsionpoint-102" value="" style="ellipse;whiteSpace=wrap;html=1;aspect=fixed;fontSize=16;fillColor=#eeeeee;strokeColor=#36393d;" parent="1" vertex="1">
          <mxGeometry x="665" y="325" width="30" height="30" as="geometry" />
        </mxCell>
        <mxCell id="collsionpoint-103" value="" style="ellipse;whiteSpace=wrap;html=1;aspect=fixed;fontSize=16;fillColor=#eeeeee;strokeColor=#36393d;" parent="1" vertex="1">
          <mxGeometry x="75" y="335" width="30" height="30" as="geometry" />
        </mxCell>
        <mxCell id="collsionpoint-104" value="" style="ellipse;whiteSpace=wrap;html=1;aspect=fixed;fontSize=16;fillColor=#eeeeee;strokeColor=#36393d;" parent="1" vertex="1">
          <mxGeometry x="445" y="335" width="30" height="30" as="geometry" />
        </mxCell>
        <mxCell id="collsionpoint-105" value="" style="ellipse;whiteSpace=wrap;html=1;aspect=fixed;fontSize=16;fillColor=#eeeeee;strokeColor=#36393d;" parent="1" vertex="1">
          <mxGeometry x="765" y="335" width="30" height="30" as="geometry" />
        </mxCell>
        <mxCell id="collsionpoint-106" value="" style="ellipse;whiteSpace=wrap;html=1;aspect=fixed;fontSize=16;fillColor=#eeeeee;strokeColor=#36393d;" parent="1" vertex="1">
          <mxGeometry x="265" y="345" width="30" height="30" as="geometry" />
        </mxCell>
        <mxCell id="collsionpoint-107" value="" style="ellipse;whiteSpace=wrap;html=1;aspect=fixed;fontSize=16;fillColor=#eeeeee;strokeColor=#36393d;" parent="1" vertex="1">
          <mxGeometry x="665" y="345" width="30" height="30" as="geometry" />
        </mxCell>
        <mxCell id="collsionpoint-108" value="" style="ellipse;whiteSpace=wrap;html=1;aspect=fixed;fontSize=16;fillColor=#eeeeee;strokeColor=#36393d;" parent="1" vertex="1">
          <mxGeometry x="75" y="355" width="30" height="30" as="geometry" />
        </mxCell>
        <mxCell id="collsionpoint-109" value="" style="ellipse;whiteSpace=wrap;html=1;aspect=fixed;fontSize=16;fillColor=#eeeeee;strokeColor=#36393d;" parent="1" vertex="1">
          <mxGeometry x="375" y="355" width="30" height="30" as="geometry" />
        </mxCell>
        <mxCell id="collsionpoint-110" value="" style="ellipse;whiteSpace=wrap;html=1;aspect=fixed;fontSize=16;fillColor=#eeeeee;strokeColor=#36393d;" parent="1" vertex="1">
          <mxGeometry x="395" y="355" width="30" height="30" as="geometry" />
        </mxCell>
        <mxCell id="collsionpoint-111" value="" style="ellipse;whiteSpace=wrap;html=1;aspect=fixed;fontSize=16;fillColor=#eeeeee;strokeColor=#36393d;" parent="1" vertex="1">
          <mxGeometry x="415" y="355" width="30" height="30" as="geometry" />
        </mxCell>
        <mxCell id="collsionpoint-112" value="" style="ellipse;whiteSpace=wrap;html=1;aspect=fixed;fontSize=16;fillColor=#eeeeee;strokeColor=#36393d;" parent="1" vertex="1">
          <mxGeometry x="435" y="355" width="30" height="30" as="geometry" />
        </mxCell>
        <mxCell id="collsionpoint-113" value="" style="ellipse;whiteSpace=wrap;html=1;aspect=fixed;fontSize=16;fillColor=#eeeeee;strokeColor=#36393d;" parent="1" vertex="1">
          <mxGeometry x="445" y="355" width="30" height="30" as="geometry" />
        </mxCell>
        <mxCell id="collsionpoint-114" value="" style="ellipse;whiteSpace=wrap;html=1;aspect=fixed;fontSize=16;fillColor=#eeeeee;strokeColor=#36393d;" parent="1" vertex="1">
          <mxGeometry x="465" y="355" width="30" height="30" as="geometry" />
        </mxCell>
        <mxCell id="collsionpoint-115" value="" style="ellipse;whiteSpace=wrap;html=1;aspect=fixed;fontSize=16;fillColor=#eeeeee;strokeColor=#36393d;" parent="1" vertex="1">
          <mxGeometry x="485" y="355" width="30" height="30" as="geometry" />
        </mxCell>
        <mxCell id="collsionpoint-116" value="" style="ellipse;whiteSpace=wrap;html=1;aspect=fixed;fontSize=16;fillColor=#eeeeee;strokeColor=#36393d;" parent="1" vertex="1">
          <mxGeometry x="505" y="355" width="30" height="30" as="geometry" />
        </mxCell>
        <mxCell id="collsionpoint-117" value="" style="ellipse;whiteSpace=wrap;html=1;aspect=fixed;fontSize=16;fillColor=#eeeeee;strokeColor=#36393d;" parent="1" vertex="1">
          <mxGeometry x="525" y="355" width="30" height="30" as="geometry" />
        </mxCell>
        <mxCell id="collsionpoint-118" value="" style="ellipse;whiteSpace=wrap;html=1;aspect=fixed;fontSize=16;fillColor=#eeeeee;strokeColor=#36393d;" parent="1" vertex="1">
          <mxGeometry x="545" y="355" width="30" height="30" as="geometry" />
        </mxCell>
        <mxCell id="collsionpoint-119" value="" style="ellipse;whiteSpace=wrap;html=1;aspect=fixed;fontSize=16;fillColor=#eeeeee;strokeColor=#36393d;" parent="1" vertex="1">
          <mxGeometry x="565" y="355" width="30" height="30" as="geometry" />
        </mxCell>
        <mxCell id="collsionpoint-120" value="" style="ellipse;whiteSpace=wrap;html=1;aspect=fixed;fontSize=16;fillColor=#eeeeee;strokeColor=#36393d;" parent="1" vertex="1">
          <mxGeometry x="585" y="355" width="30" height="30" as="geometry" />
        </mxCell>
        <mxCell id="collsionpoint-121" value="" style="ellipse;whiteSpace=wrap;html=1;aspect=fixed;fontSize=16;fillColor=#eeeeee;strokeColor=#36393d;" parent="1" vertex="1">
          <mxGeometry x="605" y="355" width="30" height="30" as="geometry" />
        </mxCell>
        <mxCell id="collsionpoint-122" value="" style="ellipse;whiteSpace=wrap;html=1;aspect=fixed;fontSize=16;fillColor=#eeeeee;strokeColor=#36393d;" parent="1" vertex="1">
          <mxGeometry x="625" y="355" width="30" height="30" as="geometry" />
        </mxCell>
        <mxCell id="collsionpoint-123" value="" style="ellipse;whiteSpace=wrap;html=1;aspect=fixed;fontSize=16;fillColor=#eeeeee;strokeColor=#36393d;" parent="1" vertex="1">
          <mxGeometry x="645" y="355" width="30" height="30" as="geometry" />
        </mxCell>
        <mxCell id="collsionpoint-124" value="" style="ellipse;whiteSpace=wrap;html=1;aspect=fixed;fontSize=16;fillColor=#eeeeee;strokeColor=#36393d;" parent="1" vertex="1">
          <mxGeometry x="665" y="355" width="30" height="30" as="geometry" />
        </mxCell>
        <mxCell id="collsionpoint-125" value="" style="ellipse;whiteSpace=wrap;html=1;aspect=fixed;fontSize=16;fillColor=#eeeeee;strokeColor=#36393d;" parent="1" vertex="1">
          <mxGeometry x="765" y="355" width="30" height="30" as="geometry" />
        </mxCell>
        <mxCell id="collsionpoint-126" value="" style="ellipse;whiteSpace=wrap;html=1;aspect=fixed;fontSize=16;fillColor=#eeeeee;strokeColor=#36393d;" parent="1" vertex="1">
          <mxGeometry x="265" y="365" width="30" height="30" as="geometry" />
        </mxCell>
        <mxCell id="collsionpoint-127" value="" style="ellipse;whiteSpace=wrap;html=1;aspect=fixed;fontSize=16;fillColor=#eeeeee;strokeColor=#36393d;" parent="1" vertex="1">
          <mxGeometry x="375" y="365" width="30" height="30" as="geometry" />
        </mxCell>
        <mxCell id="collsionpoint-128" value="" style="ellipse;whiteSpace=wrap;html=1;aspect=fixed;fontSize=16;fillColor=#eeeeee;strokeColor=#36393d;" parent="1" vertex="1">
          <mxGeometry x="585" y="365" width="30" height="30" as="geometry" />
        </mxCell>
        <mxCell id="collsionpoint-129" value="" style="ellipse;whiteSpace=wrap;html=1;aspect=fixed;fontSize=16;fillColor=#eeeeee;strokeColor=#36393d;" parent="1" vertex="1">
          <mxGeometry x="75" y="375" width="30" height="30" as="geometry" />
        </mxCell>
        <mxCell id="collsionpoint-130" value="" style="ellipse;whiteSpace=wrap;html=1;aspect=fixed;fontSize=16;fillColor=#eeeeee;strokeColor=#36393d;" parent="1" vertex="1">
          <mxGeometry x="765" y="375" width="30" height="30" as="geometry" />
        </mxCell>
        <mxCell id="collsionpoint-131" value="" style="ellipse;whiteSpace=wrap;html=1;aspect=fixed;fontSize=16;fillColor=#eeeeee;strokeColor=#36393d;" parent="1" vertex="1">
          <mxGeometry x="265" y="385" width="30" height="30" as="geometry" />
        </mxCell>
        <mxCell id="collsionpoint-132" value="" style="ellipse;whiteSpace=wrap;html=1;aspect=fixed;fontSize=16;fillColor=#eeeeee;strokeColor=#36393d;" parent="1" vertex="1">
          <mxGeometry x="375" y="385" width="30" height="30" as="geometry" />
        </mxCell>
        <mxCell id="collsionpoint-133" value="" style="ellipse;whiteSpace=wrap;html=1;aspect=fixed;fontSize=16;fillColor=#eeeeee;strokeColor=#36393d;" parent="1" vertex="1">
          <mxGeometry x="585" y="385" width="30" height="30" as="geometry" />
        </mxCell>
        <mxCell id="collsionpoint-134" value="" style="ellipse;whiteSpace=wrap;html=1;aspect=fixed;fontSize=16;fillColor=#eeeeee;strokeColor=#36393d;" parent="1" vertex="1">
          <mxGeometry x="75" y="395" width="30" height="30" as="geometry" />
        </mxCell>
        <mxCell id="collsionpoint-135" value="" style="ellipse;whiteSpace=wrap;html=1;aspect=fixed;fontSize=16;fillColor=#eeeeee;strokeColor=#36393d;" parent="1" vertex="1">
          <mxGeometry x="765" y="395" width="30" height="30" as="geometry" />
        </mxCell>
        <mxCell id="collsionpoint-136" value="" style="ellipse;whiteSpace=wrap;html=1;aspect=fixed;fontSize=16;fillColor=#eeeeee;strokeColor=#36393d;" parent="1" vertex="1">
          <mxGeometry x="165" y="405" width="30" height="30" as="geometry" />
        </mxCell>
        <mxCell id="collsionpoint-137" value="" style="ellipse;whiteSpace=wrap;html=1;aspect=fixed;fontSize=16;fillColor=#eeeeee;strokeColor=#36393d;" parent="1" vertex="1">
          <mxGeometry x="185" y="405" width="30" height="30" as="geometry" />
        </mxCell>
        <mxCell id="collsionpoint-138" value="" style="ellipse;whiteSpace=wrap;html=1;aspect=fixed;fontSize=16;fillColor=#eeeeee;strokeColor=#36393d;" parent="1" vertex="1">
          <mxGeometry x="205" y="405" width="30" height="30" as="geometry" />
        </mxCell>
        <mxCell id="collsionpoint-139" value="" style="ellipse;whiteSpace=wrap;html=1;aspect=fixed;fontSize=16;fillColor=#eeeeee;strokeColor=#36393d;" parent="1" vertex="1">
          <mxGeometry x="225" y="405" width="30" height="30" as="geometry" />
        </mxCell>
        <mxCell id="collsionpoint-140" value="" style="ellipse;whiteSpace=wrap;html=1;aspect=fixed;fontSize=16;fillColor=#eeeeee;strokeColor=#36393d;" parent="1" vertex="1">
          <mxGeometry x="245" y="405" width="30" height="30" as="geometry" />
        </mxCell>
        <mxCell id="collsionpoint-141" value="" style="ellipse;whiteSpace=wrap;html=1;aspect=fixed;fontSize=16;fillColor=#eeeeee;strokeColor=#36393d;" parent="1" vertex="1">
          <mxGeometry x="265" y="405" width="30" height="30" as="geometry" />
        </mxCell>
        <mxCell id="collsionpoint-142" value="" style="ellipse;whiteSpace=wrap;html=1;aspect=fixed;fontSize=16;fillColor=#eeeeee;strokeColor=#36393d;" parent="1" vertex="1">
          <mxGeometry x="375" y="405" width="30" height="30" as="geometry" />
        </mxCell>
        <mxCell id="collsionpoint-143" value="" style="ellipse;whiteSpace=wrap;html=1;aspect=fixed;fontSize=16;fillColor=#eeeeee;strokeColor=#36393d;" parent="1" vertex="1">
          <mxGeometry x="585" y="405" width="30" height="30" as="geometry" />
        </mxCell>
        <mxCell id="collsionpoint-144" value="" style="ellipse;whiteSpace=wrap;html=1;aspect=fixed;fontSize=16;fillColor=#eeeeee;strokeColor=#36393d;" parent="1" vertex="1">
          <mxGeometry x="75" y="415" width="30" height="30" as="geometry" />
        </mxCell>
        <mxCell id="collsionpoint-145" value="" style="ellipse;whiteSpace=wrap;html=1;aspect=fixed;fontSize=16;fillColor=#eeeeee;strokeColor=#36393d;" parent="1" vertex="1">
          <mxGeometry x="765" y="415" width="30" height="30" as="geometry" />
        </mxCell>
        <mxCell id="collsionpoint-146" value="" style="ellipse;whiteSpace=wrap;html=1;aspect=fixed;fontSize=16;fillColor=#eeeeee;strokeColor=#36393d;" parent="1" vertex="1">
          <mxGeometry x="265" y="425" width="30" height="30" as="geometry" />
        </mxCell>
        <mxCell id="collsionpoint-147" value="" style="ellipse;whiteSpace=wrap;html=1;aspect=fixed;fontSize=16;fillColor=#eeeeee;strokeColor=#36393d;" parent="1" vertex="1">
          <mxGeometry x="375" y="425" width="30" height="30" as="geometry" />
        </mxCell>
        <mxCell id="collsionpoint-148" value="" style="ellipse;whiteSpace=wrap;html=1;aspect=fixed;fontSize=16;fillColor=#eeeeee;strokeColor=#36393d;" parent="1" vertex="1">
          <mxGeometry x="455" y="425" width="30" height="30" as="geometry" />
        </mxCell>
        <mxCell id="collsionpoint-149" value="" style="ellipse;whiteSpace=wrap;html=1;aspect=fixed;fontSize=16;fillColor=#eeeeee;strokeColor=#36393d;" parent="1" vertex="1">
          <mxGeometry x="475" y="425" width="30" height="30" as="geometry" />
        </mxCell>
        <mxCell id="collsionpoint-150" value="" style="ellipse;whiteSpace=wrap;html=1;aspect=fixed;fontSize=16;fillColor=#eeeeee;strokeColor=#36393d;" parent="1" vertex="1">
          <mxGeometry x="495" y="425" width="30" height="30" as="geometry" />
        </mxCell>
        <mxCell id="collsionpoint-151" value="" style="ellipse;whiteSpace=wrap;html=1;aspect=fixed;fontSize=16;fillColor=#eeeeee;strokeColor=#36393d;" parent="1" vertex="1">
          <mxGeometry x="515" y="425" width="30" height="30" as="geometry" />
        </mxCell>
        <mxCell id="collsionpoint-152" value="" style="ellipse;whiteSpace=wrap;html=1;aspect=fixed;fontSize=16;fillColor=#eeeeee;strokeColor=#36393d;" parent="1" vertex="1">
          <mxGeometry x="585" y="425" width="30" height="30" as="geometry" />
        </mxCell>
        <mxCell id="collsionpoint-153" value="" style="ellipse;whiteSpace=wrap;html=1;aspect=fixed;fontSize=16;fillColor=#eeeeee;strokeColor=#36393d;" parent="1" vertex="1">
          <mxGeometry x="75" y="435" width="30" height="30" as="geometry" />
        </mxCell>
        <mxCell id="collsionpoint-154" value="" style="ellipse;whiteSpace=wrap;html=1;aspect=fixed;fontSize=16;fillColor=#eeeeee;strokeColor=#36393d;" parent="1" vertex="1">
          <mxGeometry x="765" y="435" width="30" height="30" as="geometry" />
        </mxCell>
        <mxCell id="collsionpoint-155" value="" style="ellipse;whiteSpace=wrap;html=1;aspect=fixed;fontSize=16;fillColor=#eeeeee;strokeColor=#36393d;" parent="1" vertex="1">
          <mxGeometry x="265" y="445" width="30" height="30" as="geometry" />
        </mxCell>
        <mxCell id="collsionpoint-156" value="" style="ellipse;whiteSpace=wrap;html=1;aspect=fixed;fontSize=16;fillColor=#eeeeee;strokeColor=#36393d;" parent="1" vertex="1">
          <mxGeometry x="375" y="445" width="30" height="30" as="geometry" />
        </mxCell>
        <mxCell id="collsionpoint-157" value="" style="ellipse;whiteSpace=wrap;html=1;aspect=fixed;fontSize=16;fillColor=#eeeeee;strokeColor=#36393d;" parent="1" vertex="1">
          <mxGeometry x="455" y="445" width="30" height="30" as="geometry" />
        </mxCell>
        <mxCell id="collsionpoint-158" value="" style="ellipse;whiteSpace=wrap;html=1;aspect=fixed;fontSize=16;fillColor=#eeeeee;strokeColor=#36393d;" parent="1" vertex="1">
          <mxGeometry x="585" y="445" width="30" height="30" as="geometry" />
        </mxCell>
        <mxCell id="collsionpoint-159" value="" style="ellipse;whiteSpace=wrap;html=1;aspect=fixed;fontSize=16;fillColor=#eeeeee;strokeColor=#36393d;" parent="1" vertex="1">
          <mxGeometry x="75" y="455" width="30" height="30" as="geometry" />
        </mxCell>
        <mxCell id="collsionpoint-160" value="" style="ellipse;whiteSpace=wrap;html=1;aspect=fixed;fontSize=16;fillColor=#eeeeee;strokeColor=#36393d;" parent="1" vertex="1">
          <mxGeometry x="675" y="455" width="30" height="30" as="geometry" />
        </mxCell>
        <mxCell id="collsionpoint-161" value="" style="ellipse;whiteSpace=wrap;html=1;aspect=fixed;fontSize=16;fillColor=#eeeeee;strokeColor=#36393d;" parent="1" vertex="1">
          <mxGeometry x="695" y="455" width="30" height="30" as="geometry" />
        </mxCell>
        <mxCell id="collsionpoint-162" value="" style="ellipse;whiteSpace=wrap;html=1;aspect=fixed;fontSize=16;fillColor=#eeeeee;strokeColor=#36393d;" parent="1" vertex="1">
          <mxGeometry x="715" y="455" width="30" height="30" as="geometry" />
        </mxCell>
        <mxCell id="collsionpoint-163" value="" style="ellipse;whiteSpace=wrap;html=1;aspect=fixed;fontSize=16;fillColor=#eeeeee;strokeColor=#36393d;" parent="1" vertex="1">
          <mxGeometry x="735" y="455" width="30" height="30" as="geometry" />
        </mxCell>
        <mxCell id="collsionpoint-164" value="" style="ellipse;whiteSpace=wrap;html=1;aspect=fixed;fontSize=16;fillColor=#eeeeee;strokeColor=#36393d;" parent="1" vertex="1">
          <mxGeometry x="755" y="455" width="30" height="30" as="geometry" />
        </mxCell>
        <mxCell id="collsionpoint-165" value="" style="ellipse;whiteSpace=wrap;html=1;aspect=fixed;fontSize=16;fillColor=#eeeeee;strokeColor=#36393d;" parent="1" vertex="1">
          <mxGeometry x="765" y="455" width="30" height="30" as="geometry" />
        </mxCell>
        <mxCell id="collsionpoint-166" value="" style="ellipse;whiteSpace=wrap;html=1;aspect=fixed;fontSize=16;fillColor=#eeeeee;strokeColor=#36393d;" parent="1" vertex="1">
          <mxGeometry x="265" y="465" width="30" height="30" as="geometry" />
        </mxCell>
        <mxCell id="collsionpoint-167" value="" style="ellipse;whiteSpace=wrap;html=1;aspect=fixed;fontSize=16;fillColor=#eeeeee;strokeColor=#36393d;" parent="1" vertex="1">
          <mxGeometry x="375" y="465" width="30" height="30" as="geometry" />
        </mxCell>
        <mxCell id="collsionpoint-168" value="" style="ellipse;whiteSpace=wrap;html=1;aspect=fixed;fontSize=16;fillColor=#eeeeee;strokeColor=#36393d;" parent="1" vertex="1">
          <mxGeometry x="455" y="465" width="30" height="30" as="geometry" />
        </mxCell>
        <mxCell id="collsionpoint-169" value="" style="ellipse;whiteSpace=wrap;html=1;aspect=fixed;fontSize=16;fillColor=#eeeeee;strokeColor=#36393d;" parent="1" vertex="1">
          <mxGeometry x="585" y="465" width="30" height="30" as="geometry" />
        </mxCell>
        <mxCell id="collsionpoint-170" value="" style="ellipse;whiteSpace=wrap;html=1;aspect=fixed;fontSize=16;fillColor=#eeeeee;strokeColor=#36393d;" parent="1" vertex="1">
          <mxGeometry x="765" y="465" width="30" height="30" as="geometry" />
        </mxCell>
        <mxCell id="collsionpoint-171" value="" style="ellipse;whiteSpace=wrap;html=1;aspect=fixed;fontSize=16;fillColor=#eeeeee;strokeColor=#36393d;" parent="1" vertex="1">
          <mxGeometry x="75" y="475" width="30" height="30" as="geometry" />
        </mxCell>
        <mxCell id="collsionpoint-172" value="" style="ellipse;whiteSpace=wrap;html=1;aspect=fixed;fontSize=16;fillColor=#eeeeee;strokeColor=#36393d;" parent="1" vertex="1">
          <mxGeometry x="265" y="485" width="30" height="30" as="geometry" />
        </mxCell>
        <mxCell id="collsionpoint-173" value="" style="ellipse;whiteSpace=wrap;html=1;aspect=fixed;fontSize=16;fillColor=#eeeeee;strokeColor=#36393d;" parent="1" vertex="1">
          <mxGeometry x="375" y="485" width="30" height="30" as="geometry" />
        </mxCell>
        <mxCell id="collsionpoint-174" value="" style="ellipse;whiteSpace=wrap;html=1;aspect=fixed;fontSize=16;fillColor=#eeeeee;strokeColor=#36393d;" parent="1" vertex="1">
          <mxGeometry x="455" y="485" width="30" height="30" as="geometry" />
        </mxCell>
        <mxCell id="collsionpoint-175" value="" style="ellipse;whiteSpace=wrap;html=1;aspect=fixed;fontSize=16;fillColor=#eeeeee;strokeColor=#36393d;" parent="1" vertex="1">
          <mxGeometry x="585" y="485" width="30" height="30" as="geometry" />
        </mxCell>
        <mxCell id="collsionpoint-176" value="" style="ellipse;whiteSpace=wrap;html=1;aspect=fixed;fontSize=16;fillColor=#eeeeee;strokeColor=#36393d;" parent="1" vertex="1">
          <mxGeometry x="765" y="485" width="30" height="30" as="geometry" />
        </mxCell>
        <mxCell id="collsionpoint-177" value="" style="ellipse;whiteSpace=wrap;html=1;aspect=fixed;fontSize=16;fillColor=#eeeeee;strokeColor=#36393d;" parent="1" vertex="1">
          <mxGeometry x="75" y="495" width="30" height="30" as="geometry" />
        </mxCell>
        <mxCell id="collsionpoint-178" value="" style="ellipse;whiteSpace=wrap;html=1;aspect=fixed;fontSize=16;fillColor=#eeeeee;strokeColor=#36393d;" parent="1" vertex="1">
          <mxGeometry x="515" y="495" width="30" height="30" as="geometry" />
        </mxCell>
        <mxCell id="collsionpoint-179" value="" style="ellipse;whiteSpace=wrap;html=1;aspect=fixed;fontSize=16;fillColor=#eeeeee;strokeColor=#36393d;" parent="1" vertex="1">
          <mxGeometry x="265" y="505" width="30" height="30" as="geometry" />
        </mxCell>
        <mxCell id="collsionpoint-180" value="" style="ellipse;whiteSpace=wrap;html=1;aspect=fixed;fontSize=16;fillColor=#eeeeee;strokeColor=#36393d;" parent="1" vertex="1">
          <mxGeometry x="455" y="505" width="30" height="30" as="geometry" />
        </mxCell>
        <mxCell id="collsionpoint-181" value="" style="ellipse;whiteSpace=wrap;html=1;aspect=fixed;fontSize=16;fillColor=#eeeeee;strokeColor=#36393d;" parent="1" vertex="1">
          <mxGeometry x="765" y="505" width="30" height="30" as="geometry" />
        </mxCell>
        <mxCell id="collsionpoint-182" value="" style="ellipse;whiteSpace=wrap;html=1;aspect=fixed;fontSize=16;fillColor=#eeeeee;strokeColor=#36393d;" parent="1" vertex="1">
          <mxGeometry x="75" y="515" width="30" height="30" as="geometry" />
        </mxCell>
        <mxCell id="collsionpoint-183" value="" style="ellipse;whiteSpace=wrap;html=1;aspect=fixed;fontSize=16;fillColor=#eeeeee;strokeColor=#36393d;" parent="1" vertex="1">
          <mxGeometry x="95" y="515" width="30" height="30" as="geometry" />
        </mxCell>
        <mxCell id="collsionpoint-184" value="" style="ellipse;whiteSpace=wrap;html=1;aspect=fixed;fontSize=16;fillColor=#eeeeee;strokeColor=#36393d;" parent="1" vertex="1">
          <mxGeometry x="115" y="515" width="30" height="30" as="geometry" />
        </mxCell>
        <mxCell id="collsionpoint-185" value="" style="ellipse;whiteSpace=wrap;html=1;aspect=fixed;fontSize=16;fillColor=#eeeeee;strokeColor=#36393d;" parent="1" vertex="1">
          <mxGeometry x="135" y="515" width="30" height="30" as="geometry" />
        </mxCell>
        <mxCell id="collsionpoint-186" value="" style="ellipse;whiteSpace=wrap;html=1;aspect=fixed;fontSize=16;fillColor=#eeeeee;strokeColor=#36393d;" parent="1" vertex="1">
          <mxGeometry x="155" y="515" width="30" height="30" as="geometry" />
        </mxCell>
        <mxCell id="collsionpoint-187" value="" style="ellipse;whiteSpace=wrap;html=1;aspect=fixed;fontSize=16;fillColor=#eeeeee;strokeColor=#36393d;" parent="1" vertex="1">
          <mxGeometry x="515" y="515" width="30" height="30" as="geometry" />
        </mxCell>
        <mxCell id="collsionpoint-188" value="" style="ellipse;whiteSpace=wrap;html=1;aspect=fixed;fontSize=16;fillColor=#eeeeee;strokeColor=#36393d;" parent="1" vertex="1">
          <mxGeometry x="265" y="525" width="30" height="30" as="geometry" />
        </mxCell>
        <mxCell id="collsionpoint-189" value="" style="ellipse;whiteSpace=wrap;html=1;aspect=fixed;fontSize=16;fillColor=#eeeeee;strokeColor=#36393d;" parent="1" vertex="1">
          <mxGeometry x="455" y="525" width="30" height="30" as="geometry" />
        </mxCell>
        <mxCell id="collsionpoint-190" value="" style="ellipse;whiteSpace=wrap;html=1;aspect=fixed;fontSize=16;fillColor=#eeeeee;strokeColor=#36393d;" parent="1" vertex="1">
          <mxGeometry x="765" y="525" width="30" height="30" as="geometry" />
        </mxCell>
        <mxCell id="collsionpoint-191" value="" style="ellipse;whiteSpace=wrap;html=1;aspect=fixed;fontSize=16;fillColor=#eeeeee;strokeColor=#36393d;" parent="1" vertex="1">
          <mxGeometry x="75" y="535" width="30" height="30" as="geometry" />
        </mxCell>
        <mxCell id="collsionpoint-192" value="" style="ellipse;whiteSpace=wrap;html=1;aspect=fixed;fontSize=16;fillColor=#eeeeee;strokeColor=#36393d;" parent="1" vertex="1">
          <mxGeometry x="515" y="535" width="30" height="30" as="geometry" />
        </mxCell>
        <mxCell id="collsionpoint-193" value="" style="ellipse;whiteSpace=wrap;html=1;aspect=fixed;fontSize=16;fillColor=#eeeeee;strokeColor=#36393d;" parent="1" vertex="1">
          <mxGeometry x="265" y="545" width="30" height="30" as="geometry" />
        </mxCell>
        <mxCell id="collsionpoint-194" value="" style="ellipse;whiteSpace=wrap;html=1;aspect=fixed;fontSize=16;fillColor=#eeeeee;strokeColor=#36393d;" parent="1" vertex="1">
          <mxGeometry x="455" y="545" width="30" height="30" as="geometry" />
        </mxCell>
        <mxCell id="collsionpoint-195" value="" style="ellipse;whiteSpace=wrap;html=1;aspect=fixed;fontSize=16;fillColor=#eeeeee;strokeColor=#36393d;" parent="1" vertex="1">
          <mxGeometry x="515" y="545" width="30" height="30" as="geometry" />
        </mxCell>
        <mxCell id="collsionpoint-196" value="" style="ellipse;whiteSpace=wrap;html=1;aspect=fixed;fontSize=16;fillColor=#eeeeee;strokeColor=#36393d;" parent="1" vertex="1">
          <mxGeometry x="535" y="545" width="30" height="30" as="geometry" />
        </mxCell>
        <mxCell id="collsionpoint-197" value="" style="ellipse;whiteSpace=wrap;html=1;aspect=fixed;fontSize=16;fillColor=#eeeeee;strokeColor=#36393d;" parent="1" vertex="1">
          <mxGeometry x="555" y="545" width="30" height="30" as="geometry" />
        </mxCell>
        <mxCell id="collsionpoint-198" value="" style="ellipse;whiteSpace=wrap;html=1;aspect=fixed;fontSize=16;fillColor=#eeeeee;strokeColor=#36393d;" parent="1" vertex="1">
          <mxGeometry x="575" y="545" width="30" height="30" as="geometry" />
        </mxCell>
        <mxCell id="collsionpoint-199" value="" style="ellipse;whiteSpace=wrap;html=1;aspect=fixed;fontSize=16;fillColor=#eeeeee;strokeColor=#36393d;" parent="1" vertex="1">
          <mxGeometry x="595" y="545" width="30" height="30" as="geometry" />
        </mxCell>
        <mxCell id="collsionpoint-200" value="" style="ellipse;whiteSpace=wrap;html=1;aspect=fixed;fontSize=16;fillColor=#eeeeee;strokeColor=#36393d;" parent="1" vertex="1">
          <mxGeometry x="615" y="545" width="30" height="30" as="geometry" />
        </mxCell>
        <mxCell id="collsionpoint-201" value="" style="ellipse;whiteSpace=wrap;html=1;aspect=fixed;fontSize=16;fillColor=#eeeeee;strokeColor=#36393d;" parent="1" vertex="1">
          <mxGeometry x="635" y="545" width="30" height="30" as="geometry" />
        </mxCell>
        <mxCell id="collsionpoint-202" value="" style="ellipse;whiteSpace=wrap;html=1;aspect=fixed;fontSize=16;fillColor=#eeeeee;strokeColor=#36393d;" parent="1" vertex="1">
          <mxGeometry x="655" y="545" width="30" height="30" as="geometry" />
        </mxCell>
        <mxCell id="collsionpoint-203" value="" style="ellipse;whiteSpace=wrap;html=1;aspect=fixed;fontSize=16;fillColor=#eeeeee;strokeColor=#36393d;" parent="1" vertex="1">
          <mxGeometry x="675" y="545" width="30" height="30" as="geometry" />
        </mxCell>
        <mxCell id="collsionpoint-204" value="" style="ellipse;whiteSpace=wrap;html=1;aspect=fixed;fontSize=16;fillColor=#eeeeee;strokeColor=#36393d;" parent="1" vertex="1">
          <mxGeometry x="765" y="545" width="30" height="30" as="geometry" />
        </mxCell>
        <mxCell id="collsionpoint-205" value="" style="ellipse;whiteSpace=wrap;html=1;aspect=fixed;fontSize=16;fillColor=#eeeeee;strokeColor=#36393d;" parent="1" vertex="1">
          <mxGeometry x="75" y="555" width="30" height="30" as="geometry" />
        </mxCell>
        <mxCell id="collsionpoint-206" value="" style="ellipse;whiteSpace=wrap;html=1;aspect=fixed;fontSize=16;fillColor=#eeeeee;strokeColor=#36393d;" parent="1" vertex="1">
          <mxGeometry x="655" y="555" width="30" height="30" as="geometry" />
        </mxCell>
        <mxCell id="collsionpoint-207" value="" style="ellipse;whiteSpace=wrap;html=1;aspect=fixed;fontSize=16;fillColor=#eeeeee;strokeColor=#36393d;" parent="1" vertex="1">
          <mxGeometry x="265" y="565" width="30" height="30" as="geometry" />
        </mxCell>
        <mxCell id="collsionpoint-208" value="" style="ellipse;whiteSpace=wrap;html=1;aspect=fixed;fontSize=16;fillColor=#eeeeee;strokeColor=#36393d;" parent="1" vertex="1">
          <mxGeometry x="455" y="565" width="30" height="30" as="geometry" />
        </mxCell>
        <mxCell id="collsionpoint-209" value="" style="ellipse;whiteSpace=wrap;html=1;aspect=fixed;fontSize=16;fillColor=#eeeeee;strokeColor=#36393d;" parent="1" vertex="1">
          <mxGeometry x="765" y="565" width="30" height="30" as="geometry" />
        </mxCell>
        <mxCell id="collsionpoint-210" value="" style="ellipse;whiteSpace=wrap;html=1;aspect=fixed;fontSize=16;fillColor=#eeeeee;strokeColor=#36393d;" parent="1" vertex="1">
          <mxGeometry x="75" y="575" width="30" height="30" as="geometry" />
        </mxCell>
        <mxCell id="collsionpoint-211" value="" style="ellipse;whiteSpace=wrap;html=1;aspect=fixed;fontSize=16;fillColor=#eeeeee;strokeColor=#36393d;" parent="1" vertex="1">
          <mxGeometry x="655" y="575" width="30" height="30" as="geometry" />
        </mxCell>
        <mxCell id="collsionpoint-212" value="" style="ellipse;whiteSpace=wrap;html=1;aspect=fixed;fontSize=16;fillColor=#eeeeee;strokeColor=#36393d;" parent="1" vertex="1">
          <mxGeometry x="215" y="585" width="30" height="30" as="geometry" />
        </mxCell>
        <mxCell id="collsionpoint-213" value="" style="ellipse;whiteSpace=wrap;html=1;aspect=fixed;fontSize=16;fillColor=#eeeeee;strokeColor=#36393d;" parent="1" vertex="1">
          <mxGeometry x="235" y="585" width="30" height="30" as="geometry" />
        </mxCell>
        <mxCell id="collsionpoint-214" value="" style="ellipse;whiteSpace=wrap;html=1;aspect=fixed;fontSize=16;fillColor=#eeeeee;strokeColor=#36393d;" parent="1" vertex="1">
          <mxGeometry x="255" y="585" width="30" height="30" as="geometry" />
        </mxCell>
        <mxCell id="collsionpoint-215" value="" style="ellipse;whiteSpace=wrap;html=1;aspect=fixed;fontSize=16;fillColor=#eeeeee;strokeColor=#36393d;" parent="1" vertex="1">
          <mxGeometry x="265" y="585" width="30" height="30" as="geometry" />
        </mxCell>
        <mxCell id="collsionpoint-216" value="" style="ellipse;whiteSpace=wrap;html=1;aspect=fixed;fontSize=16;fillColor=#eeeeee;strokeColor=#36393d;" parent="1" vertex="1">
          <mxGeometry x="285" y="585" width="30" height="30" as="geometry" />
        </mxCell>
        <mxCell id="collsionpoint-217" value="" style="ellipse;whiteSpace=wrap;html=1;aspect=fixed;fontSize=16;fillColor=#eeeeee;strokeColor=#36393d;" parent="1" vertex="1">
          <mxGeometry x="305" y="585" width="30" height="30" as="geometry" />
        </mxCell>
        <mxCell id="collsionpoint-218" value="" style="ellipse;whiteSpace=wrap;html=1;aspect=fixed;fontSize=16;fillColor=#eeeeee;strokeColor=#36393d;" parent="1" vertex="1">
          <mxGeometry x="325" y="585" width="30" height="30" as="geometry" />
        </mxCell>
        <mxCell id="collsionpoint-219" value="" style="ellipse;whiteSpace=wrap;html=1;aspect=fixed;fontSize=16;fillColor=#eeeeee;strokeColor=#36393d;" parent="1" vertex="1">
          <mxGeometry x="345" y="585" width="30" height="30" as="geometry" />
        </mxCell>
        <mxCell id="collsionpoint-220" value="" style="ellipse;whiteSpace=wrap;html=1;aspect=fixed;fontSize=16;fillColor=#eeeeee;strokeColor=#36393d;" parent="1" vertex="1">
          <mxGeometry x="365" y="585" width="30" height="30" as="geometry" />
        </mxCell>
        <mxCell id="collsionpoint-221" value="" style="ellipse;whiteSpace=wrap;html=1;aspect=fixed;fontSize=16;fillColor=#eeeeee;strokeColor=#36393d;" parent="1" vertex="1">
          <mxGeometry x="385" y="585" width="30" height="30" as="geometry" />
        </mxCell>
        <mxCell id="collsionpoint-222" value="" style="ellipse;whiteSpace=wrap;html=1;aspect=fixed;fontSize=16;fillColor=#eeeeee;strokeColor=#36393d;" parent="1" vertex="1">
          <mxGeometry x="405" y="585" width="30" height="30" as="geometry" />
        </mxCell>
        <mxCell id="collsionpoint-223" value="" style="ellipse;whiteSpace=wrap;html=1;aspect=fixed;fontSize=16;fillColor=#eeeeee;strokeColor=#36393d;" parent="1" vertex="1">
          <mxGeometry x="425" y="585" width="30" height="30" as="geometry" />
        </mxCell>
        <mxCell id="collsionpoint-224" value="" style="ellipse;whiteSpace=wrap;html=1;aspect=fixed;fontSize=16;fillColor=#eeeeee;strokeColor=#36393d;" parent="1" vertex="1">
          <mxGeometry x="445" y="585" width="30" height="30" as="geometry" />
        </mxCell>
        <mxCell id="collsionpoint-225" value="" style="ellipse;whiteSpace=wrap;html=1;aspect=fixed;fontSize=16;fillColor=#eeeeee;strokeColor=#36393d;" parent="1" vertex="1">
          <mxGeometry x="455" y="585" width="30" height="30" as="geometry" />
        </mxCell>
        <mxCell id="collsionpoint-226" value="" style="ellipse;whiteSpace=wrap;html=1;aspect=fixed;fontSize=16;fillColor=#eeeeee;strokeColor=#36393d;" parent="1" vertex="1">
          <mxGeometry x="765" y="585" width="30" height="30" as="geometry" />
        </mxCell>
        <mxCell id="collsionpoint-227" value="" style="ellipse;whiteSpace=wrap;html=1;aspect=fixed;fontSize=16;fillColor=#eeeeee;strokeColor=#36393d;" parent="1" vertex="1">
          <mxGeometry x="75" y="595" width="30" height="30" as="geometry" />
        </mxCell>
        <mxCell id="collsionpoint-228" value="" style="ellipse;whiteSpace=wrap;html=1;aspect=fixed;fontSize=16;fillColor=#eeeeee;strokeColor=#36393d;" parent="1" vertex="1">
          <mxGeometry x="215" y="595" width="30" height="30" as="geometry" />
        </mxCell>
        <mxCell id="collsionpoint-229" value="" style="ellipse;whiteSpace=wrap;html=1;aspect=fixed;fontSize=16;fillColor=#eeeeee;strokeColor=#36393d;" parent="1" vertex="1">
          <mxGeometry x="655" y="595" width="30" height="30" as="geometry" />
        </mxCell>
        <mxCell id="collsionpoint-230" value="" style="ellipse;whiteSpace=wrap;html=1;aspect=fixed;fontSize=16;fillColor=#eeeeee;strokeColor=#36393d;" parent="1" vertex="1">
          <mxGeometry x="455" y="605" width="30" height="30" as="geometry" />
        </mxCell>
        <mxCell id="collsionpoint-231" value="" style="ellipse;whiteSpace=wrap;html=1;aspect=fixed;fontSize=16;fillColor=#eeeeee;strokeColor=#36393d;" parent="1" vertex="1">
          <mxGeometry x="765" y="605" width="30" height="30" as="geometry" />
        </mxCell>
        <mxCell id="collsionpoint-232" value="" style="ellipse;whiteSpace=wrap;html=1;aspect=fixed;fontSize=16;fillColor=#eeeeee;strokeColor=#36393d;" parent="1" vertex="1">
          <mxGeometry x="75" y="615" width="30" height="30" as="geometry" />
        </mxCell>
        <mxCell id="collsionpoint-233" value="" style="ellipse;whiteSpace=wrap;html=1;aspect=fixed;fontSize=16;fillColor=#eeeeee;strokeColor=#36393d;" parent="1" vertex="1">
          <mxGeometry x="215" y="615" width="30" height="30" as="geometry" />
        </mxCell>
        <mxCell id="collsionpoint-234" value="" style="ellipse;whiteSpace=wrap;html=1;aspect=fixed;fontSize=16;fillColor=#eeeeee;strokeColor=#36393d;" parent="1" vertex="1">
          <mxGeometry x="655" y="615" width="30" height="30" as="geometry" />
        </mxCell>
        <mxCell id="collsionpoint-235" value="" style="ellipse;whiteSpace=wrap;html=1;aspect=fixed;fontSize=16;fillColor=#eeeeee;strokeColor=#36393d;" parent="1" vertex="1">
          <mxGeometry x="455" y="625" width="30" height="30" as="geometry" />
        </mxCell>
        <mxCell id="collsionpoint-236" value="" style="ellipse;whiteSpace=wrap;html=1;aspect=fixed;fontSize=16;fillColor=#eeeeee;strokeColor=#36393d;" parent="1" vertex="1">
          <mxGeometry x="75" y="635" width="30" height="30" as="geometry" />
        </mxCell>
        <mxCell id="collsionpoint-237" value="" style="ellipse;whiteSpace=wrap;html=1;aspect=fixed;fontSize=16;fillColor=#eeeeee;strokeColor=#36393d;" parent="1" vertex="1">
          <mxGeometry x="165" y="635" width="30" height="30" as="geometry" />
        </mxCell>
        <mxCell id="collsionpoint-238" value="" style="ellipse;whiteSpace=wrap;html=1;aspect=fixed;fontSize=16;fillColor=#eeeeee;strokeColor=#36393d;" parent="1" vertex="1">
          <mxGeometry x="185" y="635" width="30" height="30" as="geometry" />
        </mxCell>
        <mxCell id="collsionpoint-239" value="" style="ellipse;whiteSpace=wrap;html=1;aspect=fixed;fontSize=16;fillColor=#eeeeee;strokeColor=#36393d;" parent="1" vertex="1">
          <mxGeometry x="205" y="635" width="30" height="30" as="geometry" />
        </mxCell>
        <mxCell id="collsionpoint-240" value="" style="ellipse;whiteSpace=wrap;html=1;aspect=fixed;fontSize=16;fillColor=#eeeeee;strokeColor=#36393d;" parent="1" vertex="1">
          <mxGeometry x="215" y="635" width="30" height="30" as="geometry" />
        </mxCell>
        <mxCell id="collsionpoint-241" value="" style="ellipse;whiteSpace=wrap;html=1;aspect=fixed;fontSize=16;fillColor=#eeeeee;strokeColor=#36393d;" parent="1" vertex="1">
          <mxGeometry x="655" y="635" width="30" height="30" as="geometry" />
        </mxCell>
        <mxCell id="collsionpoint-242" value="" style="ellipse;whiteSpace=wrap;html=1;aspect=fixed;fontSize=16;fillColor=#eeeeee;strokeColor=#36393d;" parent="1" vertex="1">
          <mxGeometry x="455" y="645" width="30" height="30" as="geometry" />
        </mxCell>
        <mxCell id="collsionpoint-243" value="" style="ellipse;whiteSpace=wrap;html=1;aspect=fixed;fontSize=16;fillColor=#eeeeee;strokeColor=#36393d;" parent="1" vertex="1">
          <mxGeometry x="565" y="645" width="30" height="30" as="geometry" />
        </mxCell>
        <mxCell id="collsionpoint-244" value="" style="ellipse;whiteSpace=wrap;html=1;aspect=fixed;fontSize=16;fillColor=#eeeeee;strokeColor=#36393d;" parent="1" vertex="1">
          <mxGeometry x="75" y="655" width="30" height="30" as="geometry" />
        </mxCell>
        <mxCell id="collsionpoint-245" value="" style="ellipse;whiteSpace=wrap;html=1;aspect=fixed;fontSize=16;fillColor=#eeeeee;strokeColor=#36393d;" parent="1" vertex="1">
          <mxGeometry x="335" y="665" width="30" height="30" as="geometry" />
        </mxCell>
        <mxCell id="collsionpoint-246" value="" style="ellipse;whiteSpace=wrap;html=1;aspect=fixed;fontSize=16;fillColor=#eeeeee;strokeColor=#36393d;" parent="1" vertex="1">
          <mxGeometry x="565" y="665" width="30" height="30" as="geometry" />
        </mxCell>
        <mxCell id="collsionpoint-247" value="" style="ellipse;whiteSpace=wrap;html=1;aspect=fixed;fontSize=16;fillColor=#eeeeee;strokeColor=#36393d;" parent="1" vertex="1">
          <mxGeometry x="75" y="675" width="30" height="30" as="geometry" />
        </mxCell>
        <mxCell id="collsionpoint-248" value="" style="ellipse;whiteSpace=wrap;html=1;aspect=fixed;fontSize=16;fillColor=#eeeeee;strokeColor=#36393d;" parent="1" vertex="1">
          <mxGeometry x="335" y="685" width="30" height="30" as="geometry" />
        </mxCell>
        <mxCell id="collsionpoint-249" value="" style="ellipse;whiteSpace=wrap;html=1;aspect=fixed;fontSize=16;fillColor=#eeeeee;strokeColor=#36393d;" parent="1" vertex="1">
          <mxGeometry x="565" y="685" width="30" height="30" as="geometry" />
        </mxCell>
        <mxCell id="collsionpoint-250" value="" style="ellipse;whiteSpace=wrap;html=1;aspect=fixed;fontSize=16;fillColor=#eeeeee;strokeColor=#36393d;" parent="1" vertex="1">
          <mxGeometry x="75" y="695" width="30" height="30" as="geometry" />
        </mxCell>
        <mxCell id="collsionpoint-251" value="" style="ellipse;whiteSpace=wrap;html=1;aspect=fixed;fontSize=16;fillColor=#eeeeee;strokeColor=#36393d;" parent="1" vertex="1">
          <mxGeometry x="335" y="705" width="30" height="30" as="geometry" />
        </mxCell>
        <mxCell id="collsionpoint-252" value="" style="ellipse;whiteSpace=wrap;html=1;aspect=fixed;fontSize=16;fillColor=#eeeeee;strokeColor=#36393d;" parent="1" vertex="1">
          <mxGeometry x="565" y="705" width="30" height="30" as="geometry" />
        </mxCell>
        <mxCell id="collsionpoint-253" value="" style="ellipse;whiteSpace=wrap;html=1;aspect=fixed;fontSize=16;fillColor=#eeeeee;strokeColor=#36393d;" parent="1" vertex="1">
          <mxGeometry x="765" y="705" width="30" height="30" as="geometry" />
        </mxCell>
        <mxCell id="collsionpoint-254" value="" style="ellipse;whiteSpace=wrap;html=1;aspect=fixed;fontSize=16;fillColor=#eeeeee;strokeColor=#36393d;" parent="1" vertex="1">
          <mxGeometry x="75" y="715" width="30" height="30" as="geometry" />
        </mxCell>
        <mxCell id="collsionpoint-255" value="" style="ellipse;whiteSpace=wrap;html=1;aspect=fixed;fontSize=16;fillColor=#eeeeee;strokeColor=#36393d;" parent="1" vertex="1">
          <mxGeometry x="335" y="725" width="30" height="30" as="geometry" />
        </mxCell>
        <mxCell id="collsionpoint-256" value="" style="ellipse;whiteSpace=wrap;html=1;aspect=fixed;fontSize=16;fillColor=#eeeeee;strokeColor=#36393d;" parent="1" vertex="1">
          <mxGeometry x="565" y="725" width="30" height="30" as="geometry" />
        </mxCell>
        <mxCell id="collsionpoint-257" value="" style="ellipse;whiteSpace=wrap;html=1;aspect=fixed;fontSize=16;fillColor=#eeeeee;strokeColor=#36393d;" parent="1" vertex="1">
          <mxGeometry x="765" y="725" width="30" height="30" as="geometry" />
        </mxCell>
        <mxCell id="collsionpoint-258" value="" style="ellipse;whiteSpace=wrap;html=1;aspect=fixed;fontSize=16;fillColor=#eeeeee;strokeColor=#36393d;" parent="1" vertex="1">
          <mxGeometry x="75" y="735" width="30" height="30" as="geometry" />
        </mxCell>
        <mxCell id="collsionpoint-259" value="" style="ellipse;whiteSpace=wrap;html=1;aspect=fixed;fontSize=16;fillColor=#eeeeee;strokeColor=#36393d;" parent="1" vertex="1">
          <mxGeometry x="95" y="735" width="30" height="30" as="geometry" />
        </mxCell>
        <mxCell id="collsionpoint-260" value="" style="ellipse;whiteSpace=wrap;html=1;aspect=fixed;fontSize=16;fillColor=#eeeeee;strokeColor=#36393d;" parent="1" vertex="1">
          <mxGeometry x="115" y="735" width="30" height="30" as="geometry" />
        </mxCell>
        <mxCell id="collsionpoint-261" value="" style="ellipse;whiteSpace=wrap;html=1;aspect=fixed;fontSize=16;fillColor=#eeeeee;strokeColor=#36393d;" parent="1" vertex="1">
          <mxGeometry x="235" y="735" width="30" height="30" as="geometry" />
        </mxCell>
        <mxCell id="collsionpoint-262" value="" style="ellipse;whiteSpace=wrap;html=1;aspect=fixed;fontSize=16;fillColor=#eeeeee;strokeColor=#36393d;" parent="1" vertex="1">
          <mxGeometry x="255" y="735" width="30" height="30" as="geometry" />
        </mxCell>
        <mxCell id="collsionpoint-263" value="" style="ellipse;whiteSpace=wrap;html=1;aspect=fixed;fontSize=16;fillColor=#eeeeee;strokeColor=#36393d;" parent="1" vertex="1">
          <mxGeometry x="275" y="735" width="30" height="30" as="geometry" />
        </mxCell>
        <mxCell id="collsionpoint-264" value="" style="ellipse;whiteSpace=wrap;html=1;aspect=fixed;fontSize=16;fillColor=#eeeeee;strokeColor=#36393d;" parent="1" vertex="1">
          <mxGeometry x="295" y="735" width="30" height="30" as="geometry" />
        </mxCell>
        <mxCell id="collsionpoint-265" value="" style="ellipse;whiteSpace=wrap;html=1;aspect=fixed;fontSize=16;fillColor=#eeeeee;strokeColor=#36393d;" parent="1" vertex="1">
          <mxGeometry x="315" y="735" width="30" height="30" as="geometry" />
        </mxCell>
        <mxCell id="collsionpoint-266" value="" style="ellipse;whiteSpace=wrap;html=1;aspect=fixed;fontSize=16;fillColor=#eeeeee;strokeColor=#36393d;" parent="1" vertex="1">
          <mxGeometry x="335" y="735" width="30" height="30" as="geometry" />
        </mxCell>
        <mxCell id="collsionpoint-267" value="" style="ellipse;whiteSpace=wrap;html=1;aspect=fixed;fontSize=16;fillColor=#eeeeee;strokeColor=#36393d;" parent="1" vertex="1">
          <mxGeometry x="345" y="735" width="30" height="30" as="geometry" />
        </mxCell>
        <mxCell id="collsionpoint-268" value="" style="ellipse;whiteSpace=wrap;html=1;aspect=fixed;fontSize=16;fillColor=#eeeeee;strokeColor=#36393d;" parent="1" vertex="1">
          <mxGeometry x="365" y="735" width="30" height="30" as="geometry" />
        </mxCell>
        <mxCell id="collsionpoint-269" value="" style="ellipse;whiteSpace=wrap;html=1;aspect=fixed;fontSize=16;fillColor=#eeeeee;strokeColor=#36393d;" parent="1" vertex="1">
          <mxGeometry x="385" y="735" width="30" height="30" as="geometry" />
        </mxCell>
        <mxCell id="collsionpoint-270" value="" style="ellipse;whiteSpace=wrap;html=1;aspect=fixed;fontSize=16;fillColor=#eeeeee;strokeColor=#36393d;" parent="1" vertex="1">
          <mxGeometry x="405" y="735" width="30" height="30" as="geometry" />
        </mxCell>
        <mxCell id="collsionpoint-271" value="" style="ellipse;whiteSpace=wrap;html=1;aspect=fixed;fontSize=16;fillColor=#eeeeee;strokeColor=#36393d;" parent="1" vertex="1">
          <mxGeometry x="425" y="735" width="30" height="30" as="geometry" />
        </mxCell>
        <mxCell id="collsionpoint-272" value="" style="ellipse;whiteSpace=wrap;html=1;aspect=fixed;fontSize=16;fillColor=#eeeeee;strokeColor=#36393d;" parent="1" vertex="1">
          <mxGeometry x="445" y="735" width="30" height="30" as="geometry" />
        </mxCell>
        <mxCell id="collsionpoint-273" value="" style="ellipse;whiteSpace=wrap;html=1;aspect=fixed;fontSize=16;fillColor=#eeeeee;strokeColor=#36393d;" parent="1" vertex="1">
          <mxGeometry x="465" y="735" width="30" height="30" as="geometry" />
        </mxCell>
        <mxCell id="collsionpoint-274" value="" style="ellipse;whiteSpace=wrap;html=1;aspect=fixed;fontSize=16;fillColor=#eeeeee;strokeColor=#36393d;" parent="1" vertex="1">
          <mxGeometry x="485" y="735" width="30" height="30" as="geometry" />
        </mxCell>
        <mxCell id="collsionpoint-275" value="" style="ellipse;whiteSpace=wrap;html=1;aspect=fixed;fontSize=16;fillColor=#eeeeee;strokeColor=#36393d;" parent="1" vertex="1">
          <mxGeometry x="505" y="735" width="30" height="30" as="geometry" />
        </mxCell>
        <mxCell id="collsionpoint-276" value="" style="ellipse;whiteSpace=wrap;html=1;aspect=fixed;fontSize=16;fillColor=#eeeeee;strokeColor=#36393d;" parent="1" vertex="1">
          <mxGeometry x="525" y="735" width="30" height="30" as="geometry" />
        </mxCell>
        <mxCell id="collsionpoint-277" value="" style="ellipse;whiteSpace=wrap;html=1;aspect=fixed;fontSize=16;fillColor=#eeeeee;strokeColor=#36393d;" parent="1" vertex="1">
          <mxGeometry x="545" y="735" width="30" height="30" as="geometry" />
        </mxCell>
        <mxCell id="collsionpoint-278" value="" style="ellipse;whiteSpace=wrap;html=1;aspect=fixed;fontSize=16;fillColor=#eeeeee;strokeColor=#36393d;" parent="1" vertex="1">
          <mxGeometry x="565" y="735" width="30" height="30" as="geometry" />
        </mxCell>
        <mxCell id="collsionpoint-279" value="" style="ellipse;whiteSpace=wrap;html=1;aspect=fixed;fontSize=16;fillColor=#eeeeee;strokeColor=#36393d;" parent="1" vertex="1">
          <mxGeometry x="585" y="735" width="30" height="30" as="geometry" />
        </mxCell>
        <mxCell id="collsionpoint-280" value="" style="ellipse;whiteSpace=wrap;html=1;aspect=fixed;fontSize=16;fillColor=#eeeeee;strokeColor=#36393d;" parent="1" vertex="1">
          <mxGeometry x="605" y="735" width="30" height="30" as="geometry" />
        </mxCell>
        <mxCell id="collsionpoint-281" value="" style="ellipse;whiteSpace=wrap;html=1;aspect=fixed;fontSize=16;fillColor=#eeeeee;strokeColor=#36393d;" parent="1" vertex="1">
          <mxGeometry x="625" y="735" width="30" height="30" as="geometry" />
        </mxCell>
        <mxCell id="collsionpoint-282" value="" style="ellipse;whiteSpace=wrap;html=1;aspect=fixed;fontSize=16;fillColor=#eeeeee;strokeColor=#36393d;" parent="1" vertex="1">
          <mxGeometry x="645" y="735" width="30" height="30" as="geometry" />
        </mxCell>
        <mxCell id="collsionpoint-283" value="" style="ellipse;whiteSpace=wrap;html=1;aspect=fixed;fontSize=16;fillColor=#eeeeee;strokeColor=#36393d;" parent="1" vertex="1">
          <mxGeometry x="665" y="735" width="30" height="30" as="geometry" />
        </mxCell>
        <mxCell id="collsionpoint-284" value="" style="ellipse;whiteSpace=wrap;html=1;aspect=fixed;fontSize=16;fillColor=#eeeeee;strokeColor=#36393d;" parent="1" vertex="1">
          <mxGeometry x="685" y="735" width="30" height="30" as="geometry" />
        </mxCell>
        <mxCell id="collsionpoint-285" value="" style="ellipse;whiteSpace=wrap;html=1;aspect=fixed;fontSize=16;fillColor=#eeeeee;strokeColor=#36393d;" parent="1" vertex="1">
          <mxGeometry x="705" y="735" width="30" height="30" as="geometry" />
        </mxCell>
        <mxCell id="collsionpoint-286" value="" style="ellipse;whiteSpace=wrap;html=1;aspect=fixed;fontSize=16;fillColor=#eeeeee;strokeColor=#36393d;" parent="1" vertex="1">
          <mxGeometry x="725" y="735" width="30" height="30" as="geometry" />
        </mxCell>
        <mxCell id="collsionpoint-287" value="" style="ellipse;whiteSpace=wrap;html=1;aspect=fixed;fontSize=16;fillColor=#eeeeee;strokeColor=#36393d;" parent="1" vertex="1">
          <mxGeometry x="745" y="735" width="30" height="30" as="geometry" />
        </mxCell>
        <mxCell id="collsionpoint-288" value="" style="ellipse;whiteSpace=wrap;html=1;aspect=fixed;fontSize=16;fillColor=#eeeeee;strokeColor=#36393d;" parent="1" vertex="1">
          <mxGeometry x="765" y="735" width="30" height="30" as="geometry" />
        </mxCell>
        <mxCell id="collsionpoint-289" value="" style="ellipse;whiteSpace=wrap;html=1;aspect=fixed;fontSize=16;fillColor=#eeeeee;strokeColor=#36393d;" parent="1" vertex="1">
          <mxGeometry x="785" y="735" width="30" height="30" as="geometry" />
        </mxCell>
        <mxCell id="collsionpoint-290" value="" style="ellipse;whiteSpace=wrap;html=1;aspect=fixed;fontSize=16;fillColor=#eeeeee;strokeColor=#36393d;" parent="1" vertex="1">
          <mxGeometry x="805" y="735" width="30" height="30" as="geometry" />
        </mxCell>
        <mxCell id="collsionpoint-291" value="" style="ellipse;whiteSpace=wrap;html=1;aspect=fixed;fontSize=16;fillColor=#eeeeee;strokeColor=#36393d;" parent="1" vertex="1">
          <mxGeometry x="825" y="735" width="30" height="30" as="geometry" />
        </mxCell>
        <mxCell id="collsionpoint-292" value="" style="ellipse;whiteSpace=wrap;html=1;aspect=fixed;fontSize=16;fillColor=#eeeeee;strokeColor=#36393d;" parent="1" vertex="1">
          <mxGeometry x="75" y="755" width="30" height="30" as="geometry" />
        </mxCell>
        <mxCell id="collsionpoint-293" value="" style="ellipse;whiteSpace=wrap;html=1;aspect=fixed;fontSize=16;fillColor=#eeeeee;strokeColor=#36393d;" parent="1" vertex="1">
          <mxGeometry x="75" y="775" width="30" height="30" as="geometry" />
        </mxCell>
        <mxCell id="routepoint-0" value="" style="shape=waypoint;sketch=0;fillStyle=solid;size=6;pointerEvents=1;points=[];fillColor=none;resizable=0;rotatable=0;perimeter=centerPerimeter;snapToPoint=1;fontSize=16;" parent="1" vertex="1">
          <mxGeometry x="420" y="400" width="20" height="20" as="geometry" />
        </mxCell>
        <mxCell id="routepointtext-0" value="\(p_{0}\)" style="text;html=1;align=center;verticalAlign=middle;resizable=0;points=[];autosize=1;strokeColor=none;fillColor=none;fontSize=16;" parent="1" vertex="1">
          <mxGeometry x="380" y="375" width="70" height="30" as="geometry" />
        </mxCell>
        <mxCell id="routepointtext-1" value="\(p_{1}\)" style="text;html=1;align=center;verticalAlign=middle;resizable=0;points=[];autosize=1;strokeColor=none;fillColor=none;fontSize=16;" parent="1" vertex="1">
          <mxGeometry x="410" y="375" width="70" height="30" as="geometry" />
        </mxCell>
        <mxCell id="routepoint-2" value="" style="shape=waypoint;sketch=0;fillStyle=solid;size=6;pointerEvents=1;points=[];fillColor=none;resizable=0;rotatable=0;perimeter=centerPerimeter;snapToPoint=1;fontSize=16;" parent="1" vertex="1">
          <mxGeometry x="520" y="50" width="20" height="20" as="geometry" />
        </mxCell>
        <mxCell id="routepointtext-2" value="\(p_{2}\)" style="text;html=1;align=center;verticalAlign=middle;resizable=0;points=[];autosize=1;strokeColor=none;fillColor=none;fontSize=16;" parent="1" vertex="1">
          <mxGeometry x="520" y="50" width="70" height="30" as="geometry" />
        </mxCell>
        <mxCell id="routepointtext-3" value="\(p_{3}\)" style="text;html=1;align=center;verticalAlign=middle;resizable=0;points=[];autosize=1;strokeColor=none;fillColor=none;fontSize=16;" parent="1" vertex="1">
          <mxGeometry x="380" y="395" width="70" height="30" as="geometry" />
        </mxCell>
        <mxCell id="routepoint-4" value="" style="shape=waypoint;sketch=0;fillStyle=solid;size=6;pointerEvents=1;points=[];fillColor=none;resizable=0;rotatable=0;perimeter=centerPerimeter;snapToPoint=1;fontSize=16;" parent="1" vertex="1">
          <mxGeometry x="890" y="660" width="20" height="20" as="geometry" />
        </mxCell>
        <mxCell id="routepointtext-4" value="\(p_{4}\)" style="text;html=1;align=center;verticalAlign=middle;resizable=0;points=[];autosize=1;strokeColor=none;fillColor=none;fontSize=16;" parent="1" vertex="1">
          <mxGeometry x="890" y="660" width="70" height="30" as="geometry" />
        </mxCell>
        <mxCell id="routepointtext-5" value="\(p_{5}\)" style="text;html=1;align=center;verticalAlign=middle;resizable=0;points=[];autosize=1;strokeColor=none;fillColor=none;fontSize=16;" parent="1" vertex="1">
          <mxGeometry x="410" y="395" width="70" height="30" as="geometry" />
        </mxCell>
        <mxCell id="routepoint-6" value="" style="shape=waypoint;sketch=0;fillStyle=solid;size=6;pointerEvents=1;points=[];fillColor=none;resizable=0;rotatable=0;perimeter=centerPerimeter;snapToPoint=1;fontSize=16;" parent="1" vertex="1">
          <mxGeometry x="170" y="890" width="20" height="20" as="geometry" />
        </mxCell>
        <mxCell id="routepointtext-6" value="\(p_{6}\)" style="text;html=1;align=center;verticalAlign=middle;resizable=0;points=[];autosize=1;strokeColor=none;fillColor=none;fontSize=16;" parent="1" vertex="1">
          <mxGeometry x="170" y="890" width="70" height="30" as="geometry" />
        </mxCell>
        <mxCell id="routepointtext-7" value="\(p_{7}\)" style="text;html=1;align=center;verticalAlign=middle;resizable=0;points=[];autosize=1;strokeColor=none;fillColor=none;fontSize=16;" parent="1" vertex="1">
          <mxGeometry x="380" y="415" width="70" height="30" as="geometry" />
        </mxCell>
        <mxCell id="routepointtext-8" value="\(p_{8}\)" style="text;html=1;align=center;verticalAlign=middle;resizable=0;points=[];autosize=1;strokeColor=none;fillColor=none;fontSize=16;" parent="1" vertex="1">
          <mxGeometry x="410" y="415" width="70" height="30" as="geometry" />
        </mxCell>
      </root>
    </mxGraphModel>
  </diagram>
</mxfile>
